<mxfile host="app.diagrams.net" modified="2021-03-21T11:50:12.030Z" agent="5.0 (Macintosh; Intel Mac OS X 10_15_7) AppleWebKit/537.36 (KHTML, like Gecko) Chrome/87.0.4280.141 Safari/537.36 OPR/73.0.3856.415" etag="gGnCg9i2Yo1rPtaySZkL" version="14.4.9" type="github">
  <diagram id="NFZL2oo3ymy0pNLaz_-E" name="Page-1">
    <mxGraphModel dx="805" dy="3235" grid="1" gridSize="10" guides="1" tooltips="1" connect="1" arrows="1" fold="1" page="1" pageScale="1" pageWidth="827" pageHeight="1169" math="0" shadow="0">
      <root>
        <mxCell id="0" />
        <mxCell id="1" parent="0" />
        <mxCell id="kTmBECJqd63OVLK9k456-1" value="" style="rounded=0;whiteSpace=wrap;html=1;" vertex="1" parent="1">
          <mxGeometry x="350" y="-210" width="120" height="60" as="geometry" />
        </mxCell>
        <mxCell id="kTmBECJqd63OVLK9k456-2" value="" style="rounded=0;whiteSpace=wrap;html=1;" vertex="1" parent="1">
          <mxGeometry x="340" y="-530" width="120" height="60" as="geometry" />
        </mxCell>
      </root>
    </mxGraphModel>
  </diagram>
</mxfile>
